<svg viewBox="0 0 980 790" xmlns="http://www.w3.org/2000/svg" font-family="-apple-system,Segoe UI,Roboto,Arial,sans-serif">
  <defs>
    <marker id="a" viewBox="0 0 10 10" refX="8" refY="5" markerWidth="6" markerHeight="6" orient="auto">
      <path d="M2 1L8 5L2 9" fill="none" stroke="#888780" stroke-width="1.5" stroke-linecap="round" stroke-linejoin="round"/>
    </marker>
  </defs>
  <rect x="0" y="0" width="980" height="790" rx="14" fill="#ffffff"/>
  <text x="24" y="34" font-size="17" font-weight="600" fill="#2C2C2A">Global stock screener — architecture</text>

  <g stroke="#888780" stroke-width="1.5">
    <line x1="150" y1="124" x2="150" y2="178" marker-end="url(#a)"/>
    <line x1="490" y1="124" x2="490" y2="178" marker-end="url(#a)"/>
    <line x1="830" y1="124" x2="830" y2="178" marker-end="url(#a)"/>
    <line x1="150" y1="246" x2="150" y2="300" marker-end="url(#a)"/>
    <line x1="490" y1="246" x2="490" y2="300" marker-end="url(#a)"/>
    <line x1="830" y1="246" x2="830" y2="300" marker-end="url(#a)"/>
    <line x1="150" y1="368" x2="150" y2="422" marker-end="url(#a)"/>
    <line x1="490" y1="368" x2="490" y2="422" marker-end="url(#a)"/>
    <line x1="830" y1="368" x2="830" y2="422" marker-end="url(#a)"/>
    <line x1="490" y1="490" x2="490" y2="544" marker-end="url(#a)"/>
    <line x1="490" y1="612" x2="490" y2="666" marker-end="url(#a)"/>
  </g>

  <text x="24" y="58" font-size="12" fill="#5F5E5A">1 · data sources (free / official)</text>
  <g fill="#E8E6DE" stroke="#B4B2A9" stroke-width="0.5">
    <rect x="24" y="64" width="168" height="58" rx="6"/><rect x="212" y="64" width="168" height="58" rx="6"/><rect x="400" y="64" width="168" height="58" rx="6"/><rect x="588" y="64" width="168" height="58" rx="6"/><rect x="776" y="64" width="180" height="58" rx="6"/>
  </g>
  <g fill="#2C2C2A" font-size="14" font-weight="500" text-anchor="middle">
    <text x="108" y="90">Exchange EOD</text><text x="296" y="90">Prices</text><text x="484" y="90">Universes</text><text x="672" y="90">Reference</text><text x="866" y="90">News</text>
  </g>
  <g fill="#5F5E5A" font-size="12" text-anchor="middle">
    <text x="108" y="108">NSE / BSE bhavcopy</text><text x="296" y="108">Yahoo → Stooq</text><text x="484" y="108">SEC, JPX, KRX, SGX</text><text x="672" y="108">Damodaran, French</text><text x="866" y="108">RSS feeds</text>
  </g>

  <text x="24" y="178" font-size="12" fill="#5F5E5A">2 · ingest</text>
  <g fill="#D6E8FA" stroke="#85B7EB" stroke-width="0.5">
    <rect x="24" y="184" width="168" height="58" rx="6"/><rect x="212" y="184" width="168" height="58" rx="6"/><rect x="400" y="184" width="168" height="58" rx="6"/><rect x="588" y="184" width="168" height="58" rx="6"/><rect x="776" y="184" width="180" height="58" rx="6"/>
  </g>
  <g fill="#0C447C" font-size="14" font-weight="500" text-anchor="middle">
    <text x="108" y="210">universe_sources</text><text x="296" y="210">bhavcopy_history</text><text x="484" y="210">data_sources</text><text x="672" y="210">market_calendar</text><text x="866" y="210">fetch_market_ohlc</text>
  </g>
  <g fill="#185FA5" font-size="12" text-anchor="middle">
    <text x="108" y="228">who is listed</text><text x="296" y="228">India EOD, cached</text><text x="484" y="228">fallback chain</text><text x="672" y="228">trading days only</text><text x="866" y="228">per-market seeds</text>
  </g>

  <text x="24" y="300" font-size="12" fill="#5F5E5A">3 · cache &amp; storage (committed, Git LFS)</text>
  <g fill="#D6F0E6" stroke="#5DCAA5" stroke-width="0.5">
    <rect x="54" y="306" width="200" height="58" rx="6"/><rect x="278" y="306" width="200" height="58" rx="6"/><rect x="502" y="306" width="200" height="58" rx="6"/><rect x="726" y="306" width="200" height="58" rx="6"/>
  </g>
  <g fill="#0F6E56" font-size="14" font-weight="500" text-anchor="middle">
    <text x="154" y="332">cache_seed parquet</text><text x="378" y="332">bhavcopy_store</text><text x="602" y="332">liquidity_index</text><text x="826" y="332">reference_seed</text>
  </g>
  <g fill="#0F6E56" font-size="12" text-anchor="middle">
    <text x="154" y="350">20 market seeds</text><text x="378" y="350">LMDB NoSQL, O(1)</text><text x="602" y="350">USD turnover tiers</text><text x="826" y="350">industry / factors</text>
  </g>

  <text x="24" y="422" font-size="12" fill="#5F5E5A">4 · enrich &amp; strategies</text>
  <g fill="#E4E1FB" stroke="#AFA9EC" stroke-width="0.5">
    <rect x="54" y="428" width="200" height="58" rx="6"/><rect x="278" y="428" width="200" height="58" rx="6"/><rect x="502" y="428" width="200" height="58" rx="6"/><rect x="726" y="428" width="200" height="58" rx="6"/>
  </g>
  <g fill="#3C3489" font-size="14" font-weight="500" text-anchor="middle">
    <text x="154" y="454">strategies/</text><text x="378" y="454">custom_screener</text><text x="602" y="454">liquidity</text><text x="826" y="454">CCC sources</text>
  </g>
  <g fill="#534AB7" font-size="12" text-anchor="middle">
    <text x="154" y="472">11 screens</text><text x="378" y="472">your parameters</text><text x="602" y="472">High / Med / Low</text><text x="826" y="472">SEC, screener.in</text>
  </g>

  <text x="24" y="544" font-size="12" fill="#5F5E5A">5 · facade / API</text>
  <g fill="#FAE0D5" stroke="#F0997B" stroke-width="0.5">
    <rect x="230" y="550" width="240" height="58" rx="6"/><rect x="510" y="550" width="240" height="58" rx="6"/>
  </g>
  <g fill="#993C1D" font-size="14" font-weight="500" text-anchor="middle">
    <text x="350" y="576">screener_kit</text><text x="630" y="576">run.py</text>
  </g>
  <g fill="#993C1D" font-size="12" text-anchor="middle">
    <text x="350" y="594">bootstrap · load · screen</text><text x="630" y="594">one-command CLI</text>
  </g>

  <text x="24" y="666" font-size="12" fill="#5F5E5A">6 · outputs</text>
  <g fill="#FCEBCF" stroke="#EF9F27" stroke-width="0.5">
    <rect x="54" y="672" width="200" height="58" rx="6"/><rect x="278" y="672" width="200" height="58" rx="6"/><rect x="502" y="672" width="200" height="58" rx="6"/><rect x="726" y="672" width="200" height="58" rx="6"/>
  </g>
  <g fill="#854F0B" font-size="14" font-weight="500" text-anchor="middle">
    <text x="154" y="698">run_global_analysis</text><text x="378" y="698">market_performance</text><text x="602" y="698">build / send_mailer</text><text x="826" y="698">results / Colab</text>
  </g>
  <g fill="#854F0B" font-size="12" text-anchor="middle">
    <text x="154" y="716">momentum leaderboard</text><text x="378" y="716">5-year scoreboard</text><text x="602" y="716">daily brief</text><text x="826" y="716">CSV + tables</text>
  </g>

  <text x="24" y="766" font-size="11" fill="#5F5E5A">Educational / research only — NOT investment advice.</text>
</svg>
